<svg width="72" height="72" viewBox="0 0 72 72" fill="none" xmlns="http://www.w3.org/2000/svg">
<path d="M58.0209 36.957C65.73 36.957 72 43.2296 72 50.9387C72 58.6452 65.73 64.9152 58.0209 64.9152C50.3131 64.9152 44.043 58.6452 44.043 50.9387C44.043 43.2296 50.3131 36.957 58.0209 36.957ZM58.0209 61.0858C63.618 61.0858 68.1692 56.5332 68.1692 50.9385C68.1692 45.3402 63.6179 40.7889 58.0209 40.7889C52.4251 40.7889 47.8725 45.3404 47.8725 50.9385C47.8727 56.5332 52.4251 61.0858 58.0209 61.0858Z" fill="#E9E4D8"/>
<path d="M13.9792 36.957C21.687 36.957 27.957 43.2296 27.957 50.9387C27.957 58.6452 21.687 64.9152 13.9792 64.9152C6.27013 64.9152 8.01086e-05 58.6452 8.01086e-05 50.9387C8.01086e-05 43.2296 6.27013 36.957 13.9792 36.957ZM13.9792 61.0858C19.5749 61.0858 24.1275 56.5332 24.1275 50.9385C24.1275 45.3402 19.5749 40.7889 13.9792 40.7889C8.38218 40.7889 3.82958 45.3404 3.82958 50.9385C3.82958 56.5332 8.38218 61.0858 13.9792 61.0858Z" fill="#E9E4D8"/>
<path d="M35.4411 12.2781L55.1319 15.3418C58.7378 16.1626 58.5571 17.6712 58.1039 20.0471L55.9149 27.9882L63.5751 28.053L63.5738 28.0713C64.5523 28.1935 65.3108 29.0265 65.3108 30.0366C65.3108 31.1337 64.4215 32.0204 63.327 32.0204L52.8928 33.0696C50.9249 33.1551 50.2664 31.3571 50.3069 29.873L50.7394 24.8463L43.4274 22.7893C43.4274 22.7893 46.9771 27.0022 47.2716 27.37C48.7422 29.2084 49.2749 32.5784 46.9038 34.3571L36.6395 41.8096L36.0556 50.7463C36.0556 52.2256 34.8561 53.4251 33.3768 53.4251C31.8989 53.4251 30.6993 52.2256 30.6993 50.7463C30.6993 50.6877 28.3417 22.1188 28.3417 22.1188C27.66 16.1624 31.0863 11.5928 35.4411 12.2781ZM40.8499 32.1083C41.3605 31.726 41.2347 31.2154 40.8499 30.7048C40.4688 30.1929 37.4052 27.64 37.4052 27.64L36.7652 35.6825L40.8499 32.1083Z" fill="#E9E4D8"/>
<path d="M68.4918 13.8821H63.2576V20.091H62.4684V13.8821H59.8373C59.8373 13.8821 57.0755 12.4871 55.8613 11.0934C55.5217 10.7025 55.3213 9.77899 56.4623 10.0172C56.4623 10.0172 55.8319 8.54402 55.628 7.97477C55.424 7.40313 55.5865 6.88028 56.7249 7.16505C57.3088 7.31158 60.337 7.89053 64.6184 8.82864C68.5212 9.68505 69.5447 12.7413 69.5447 13.2481C69.5447 13.7552 69.3554 13.8821 68.4918 13.8821Z" fill="#E9E4D8"/>
<path d="M69.0464 16.2901L67.9066 17.3344L64.5744 16.3854V14.7705H69.0464V16.2901Z" fill="#E9E4D8"/>
</svg>
